<svg id="eFpdImDujr11" xmlns="http://www.w3.org/2000/svg" xmlns:xlink="http://www.w3.org/1999/xlink" viewBox="0 0 500 500" shape-rendering="geometricPrecision" text-rendering="geometricPrecision" project-id="b7faf00e3f734eda96730c5e6ab802d0" export-id="0e37d52adc5d40d49694208ebd1d987b" cached="false"><defs><linearGradient id="eFpdImDujr15-fill" x1="425.5979" y1="-51.4998" x2="1089.4521" y2="-51.4998" spreadMethod="pad" gradientUnits="userSpaceOnUse" gradientTransform="translate(0 0)"><stop id="eFpdImDujr15-fill-0" offset="0%" stop-color="#3a0bc7"/><stop id="eFpdImDujr15-fill-1" offset="100%" stop-color="#f190fc"/></linearGradient><linearGradient id="eFpdImDujr16-fill" x1="314.5621" y1="-144.5771" x2="903.7843" y2="-144.5771" spreadMethod="pad" gradientUnits="userSpaceOnUse" gradientTransform="translate(0 0)"><stop id="eFpdImDujr16-fill-0" offset="0%" stop-color="#4b4bfa"/><stop id="eFpdImDujr16-fill-1" offset="100%" stop-color="#f190fc"/></linearGradient><linearGradient id="eFpdImDujr17-fill" x1="-25.6217" y1="-0.0002" x2="25.6219" y2="-0.0002" spreadMethod="pad" gradientUnits="userSpaceOnUse" gradientTransform="translate(0 0)"><stop id="eFpdImDujr17-fill-0" offset="0%" stop-color="#764bfa"/><stop id="eFpdImDujr17-fill-1" offset="100%" stop-color="#f190fc"/></linearGradient><linearGradient id="eFpdImDujr18-fill" x1="-25.6218" y1="0.0001" x2="25.6219" y2="0.0001" spreadMethod="pad" gradientUnits="userSpaceOnUse" gradientTransform="translate(0 0)"><stop id="eFpdImDujr18-fill-0" offset="0%" stop-color="#4b4bfa"/><stop id="eFpdImDujr18-fill-1" offset="100%" stop-color="#f190fc"/></linearGradient></defs><g transform="translate(-314.562012 256.945984)"><g><path d="M814.562012,-256.945984L557.548,-27.675c-10.006,10.006-10.006,26.229,0,36.235v0c10.006,10.006,10.006,26.229,0,36.235L433.102,169.24c-10.006,10.006-10.006,26.229,0,36.235v0c10.006,10.006,26.229,10.006,36.235,0L593.783,81.029c10.006-10.006,26.229-10.006,36.235,0v0c10.006,10.006,10.006,26.229,0,36.235l-56.429,56.429c-10.006,10.006-10.006,26.229,0,36.235v0c10.006,10.006,26.229,10.006,36.235,0l38.114-38.114c10.006-10.006,26.229-10.006,36.235,0v0c10.006,10.006,26.229,10.006,36.235,0l3.82-3.82c10.006-10.006,26.229-10.006,36.235,0v0c10.006,10.006,26.229,10.006,36.235,0l17.864012-23.709471" fill="url(#eFpdImDujr15-fill)"/><path d="M609.173,-61.174v0c9.784,9.784,9.784,25.647,0,35.432L534.49,48.94c-9.784,9.784-9.784,25.647,0,35.432v0c9.784,9.784,9.784,25.647,0,35.431l-15.668,15.668c-9.784,9.784-9.784,25.647,0,35.432v0c9.784,9.784,25.648,9.784,35.432,0L806.096,-80.939c9.784-9.784,9.784-25.647,0-35.432v0c-9.784-9.784-1.317988-25.966,8.466012-35.75q0-104.824984,0-104.824984-402.74129,0-402.74129,0L321.9,-163.649c-9.784,9.784-9.784,25.647,0,35.431v0c9.784,9.784,25.647,9.784,35.431,0l44.566-44.566c9.784-9.784,25.647-9.784,35.432,0v0c9.784,9.784,9.784,25.647,0,35.432l-44.566,44.566c-9.784,9.784-9.784,25.647,0,35.432v0c9.784,9.784,9.784,25.647,0,35.431L370.895,-0.055c-9.784,9.784-9.784,25.647,0,35.432v0c9.784,9.784,25.647,9.784,35.431,0l54.642-54.642c9.784-9.784,25.647-9.784,35.431,0v0c9.784,9.784,25.647,9.784,35.431,0l41.909-41.909c9.787-9.785,25.65-9.785,35.434,0Z" fill="url(#eFpdImDujr16-fill)"/><circle r="25.622" transform="translate(737.595 217.432)" fill="url(#eFpdImDujr17-fill)"/><circle r="25.622" transform="translate(347.976 66.969)" fill="url(#eFpdImDujr18-fill)"/></g></g></svg>
